<?xml version="1.0" encoding="UTF-8"?>
<svg width="312px" height="457px" viewBox="0 0 312 457" version="1.1" xmlns="http://www.w3.org/2000/svg" xmlns:xlink="http://www.w3.org/1999/xlink">
    <!-- Generator: Sketch 48.2 (47327) - http://www.bohemiancoding.com/sketch -->
    <title>Fill 5</title>
    <desc>Created with Sketch.</desc>
    <defs></defs>
    <g id="Page-1" stroke="none" stroke-width="1" fill="none" fill-rule="evenodd">
        <path d="M311.302583,148.853616 C312.714583,121.481616 306.017583,93.712616 292.457583,69.910616 C264.950583,21.629616 208.758583,-5.08438401 153.854583,2.18061599 C100.341583,9.26061599 54.6215828,50.804616 41.1535828,102.936616 C36.7135828,120.125616 37.4545828,138.287616 31.0615828,155.000616 C24.5975828,171.901616 19.1855828,187.039616 11.4825828,203.335616 C5.50858276,215.974616 -2.81041724,228.531616 2.93158276,238.048616 C8.77258276,247.731616 17.5425828,251.621616 32.2665828,255.004616 L32.2255828,255.218616 C32.3195828,266.259616 32.7875828,277.306616 33.1075828,288.343616 C33.3505828,296.703616 33.2975828,305.432616 37.2345828,313.053616 C45.3545828,328.768616 61.3605828,330.420616 77.2415828,330.573616 C78.8635828,330.589616 80.6985828,330.534616 82.6535828,330.479616 C93.2845828,330.179616 107.439583,329.879616 109.834583,340.950616 C112.066583,351.266616 110.358583,363.794616 110.193583,374.298616 C109.836583,396.912616 108.010583,419.417616 107.175583,442.002616 C105.947583,441.895616 105.520583,443.708616 106.787583,444.139616 C135.461583,453.884616 166.663583,456.261616 196.761583,456.281616 C212.494583,456.292616 228.220583,455.525616 243.909583,454.398616 C257.701583,453.408616 272.630583,453.501616 285.749583,448.686616 C286.563583,448.387616 286.842583,447.645616 286.764583,446.963616 C287.745583,447.066616 288.789583,446.346616 288.352583,445.173616 C263.236583,377.651616 253.962583,304.309616 283.005583,236.478616 C295.209583,207.974616 309.671583,180.442616 311.302583,148.853616" id="Fill-5" stroke="#979797" fill="#000000"></path>
    </g>
</svg>